<svg xmlns="http://www.w3.org/2000/svg" viewBox="0 0 621 229"><g id="_404" data-name="404" style="isolation:isolate"><path d="M140,127.16h-5v-4a25,25,0,0,0-50,0v4H68L119.21,37.5a25,25,0,1,0-43.3-25L3.35,139.63A25,25,0,0,0,8,170.49l.24.22.45.39.56.48.19.15A24.89,24.89,0,0,0,25,177.16H85v27a25,25,0,0,0,50,0v-27h5a25,25,0,1,0,0-50Zm456,0h-5v-4a25,25,0,0,0-50,0v4H524L575.21,37.5a25,25,0,1,0-43.3-25L459.35,139.63A25,25,0,0,0,464,170.5l.23.22.45.39.56.47.2.15A24.89,24.89,0,0,0,481,177.16h60v27a25,25,0,0,0,50,0v-27h5a25,25,0,1,0,0-50ZM299.78,66.35l66.69-29.68a15,15,0,0,0-12.2-27.41L287.58,38.94a15,15,0,1,0,12.2,27.41Zm-52.37,46.74a15,15,0,0,0,16.38-13.48l7-72.66A15,15,0,1,0,241,24.05l-7,72.66A15,15,0,0,0,247.41,113.09Zm31.71,56.7a15,15,0,0,0-3.49-20.92l-59.41-42.43a15,15,0,0,0-17.44,24.41l59.41,42.43A15,15,0,0,0,279.13,169.79Zm43.1-6.7-66.45,30.23a15,15,0,1,0,12.42,27.31l66.45-30.23a15,15,0,0,0-12.42-27.31Zm52.12-49.52A15,15,0,0,0,358,127.05l-7,72.66a15,15,0,1,0,29.86,2.89l7-72.66A15,15,0,0,0,374.35,113.57Zm50.43-16.33L364.69,55.79a15,15,0,1,0-17,24.69l60.09,41.45a15,15,0,0,0,17-24.69Z" fill="#fff" fill-rule="evenodd"/></g></svg>