<svg xmlns="http://www.w3.org/2000/svg" width="29.7" height="29.7" viewBox="0 0 29.7 29.7"><title>next</title><g id="Эллипс_1_копия" data-name="Эллипс 1 копия" opacity="0.3" style="isolation:isolate"><path d="M27.83,13h2A15,15,0,0,0,17,.15v2A13,13,0,0,1,27.83,13ZM2.17,17h-2A15,15,0,0,0,13,29.85v-2A13,13,0,0,1,2.17,17ZM17,27.83v2A15,15,0,0,0,29.85,17h-2A13,13,0,0,1,17,27.83Z" transform="translate(-0.15 -0.15)" fill="#fff" fill-rule="evenodd"/></g><g id="Эллипс_1_копия_3" data-name="Эллипс 1 копия 3" style="isolation:isolate"><path d="M.15,13h2A13,13,0,0,1,13,2.17v-2A15,15,0,0,0,.15,13Z" transform="translate(-0.15 -0.15)" fill="#fff" fill-rule="evenodd"/></g></svg>