<svg xmlns="http://www.w3.org/2000/svg" viewBox="0 0 632 239"><g id="_404-mask" data-name="404-mask" style="isolation:isolate"><path d="M0,0V239H632V0ZM293.55,43.78,360.25,14.1a15,15,0,0,1,12.2,27.41L305.75,71.19a15,15,0,1,1-12.2-27.41ZM239.9,101.55l7-72.66a15,15,0,1,1,29.86,2.89l-7,72.66a15,15,0,0,1-29.86-2.89ZM146,182h-5v27a25,25,0,0,1-50,0V182H31a24.89,24.89,0,0,1-15.55-5.43l-.19-.15-.56-.48-.45-.39-.24-.22a25,25,0,0,1-4.69-30.86L81.88,17.35a25,25,0,1,1,43.3,25L74,132H91v-4a25,25,0,0,1,50,0v4h5a25,25,0,1,1,0,50Zm55.28-67.23a15,15,0,0,1,20.92-3.49l59.41,42.43a15,15,0,0,1-17.44,24.41L204.77,135.7A15,15,0,0,1,201.28,114.77Zm139.34,80.47-66.45,30.23a15,15,0,1,1-12.42-27.31l66.45-30.23a15,15,0,0,1,12.42,27.31Zm53.18-60.45-7,72.66a15,15,0,1,1-29.86-2.89l7-72.66a15,15,0,1,1,29.86,2.89Zm40.78-11.84a15,15,0,0,1-20.86,3.83L353.63,85.33a15,15,0,1,1,17-24.69l60.09,41.45A15,15,0,0,1,434.58,122.95ZM602,182h-5v27a25,25,0,0,1-50,0V182H487a24.89,24.89,0,0,1-15.54-5.43l-.2-.15-.56-.47-.45-.39-.23-.22a25,25,0,0,1-4.69-30.87L537.88,17.35a25,25,0,1,1,43.3,25L530,132h17v-4a25,25,0,0,1,50,0v4h5a25,25,0,1,1,0,50Z" fill="#111" fill-rule="evenodd"/></g></svg>