<svg xmlns="http://www.w3.org/2000/svg" width="62" height="62" viewBox="0 0 62 62"><title>decoration-dots-angle</title><g id="decoration" style="isolation:isolate"><path d="M58,54a4,4,0,1,0,4,4A4,4,0,0,0,58,54ZM4,0A4,4,0,1,0,8,4,4,4,0,0,0,4,0ZM22,0a4,4,0,1,0,4,4A4,4,0,0,0,22,0ZM40,0a4,4,0,1,0,4,4A4,4,0,0,0,40,0ZM58,8a4,4,0,1,0-4-4A4,4,0,0,0,58,8ZM22,18a4,4,0,1,0,4,4A4,4,0,0,0,22,18Zm18,0a4,4,0,1,0,4,4A4,4,0,0,0,40,18Zm18,0a4,4,0,1,0,4,4A4,4,0,0,0,58,18ZM40,36a4,4,0,1,0,4,4A4,4,0,0,0,40,36Zm18,0a4,4,0,1,0,4,4A4,4,0,0,0,58,36Z" fill="#5328fe" fill-rule="evenodd"/></g></svg>