<svg xmlns="http://www.w3.org/2000/svg" width="114" height="42.687" viewBox="0 0 114 42.687"><title>logotype5</title><g id="e.Oliver" style="isolation:isolate"><path d="M21.674,39.961A2.136,2.136,0,0,1,19.3,42.4a2.481,2.481,0,0,1-2.61-2.378,2.614,2.614,0,0,1,2.552-2.552A2.463,2.463,0,0,1,21.674,39.961Zm39.5-24.011A27.824,27.824,0,0,1,54.5,33.813c-4.756,5.916-10.266,8.874-16.472,8.874a12.634,12.634,0,0,1-10.5-4.814,17.775,17.775,0,0,1-3.48-11.31A28.1,28.1,0,0,1,30.49,8.642C35.071,2.9,40.581,0,47.019,0A12.976,12.976,0,0,1,57.575,4.7,17.329,17.329,0,0,1,61.171,15.95Zm-4.64-1.856a14.354,14.354,0,0,0-2.03-8,8.155,8.155,0,0,0-7.134-3.48c-5.452,0-10.15,3.074-14.036,9.222a31.342,31.342,0,0,0-5.162,16.82A12.826,12.826,0,0,0,30.606,36.6a8.549,8.549,0,0,0,7.25,3.538c3.77,0,7.424-2.03,10.962-6.148A31.2,31.2,0,0,0,55.2,22.619,29.638,29.638,0,0,0,56.531,14.094ZM9.146,36.249a16.884,16.884,0,0,1-5.1,3.074.8.8,0,0,0,.87.522c1.218,0,3.306-1.566,6.322-4.756l.522,3.016c-3.306,3.074-5.916,4.582-7.83,4.582-2.61,0-3.886-1.334-3.886-4,0-2.088.986-4.35,2.958-6.844s4-3.712,6.032-3.712a2.91,2.91,0,0,1,2.958,3.132C11.988,32.943,11.06,34.625,9.146,36.249ZM8.8,31.2l-.174-.58c-.754.058-1.624.812-2.552,2.262a12.284,12.284,0,0,0-1.508,3.364C7.406,34.625,8.8,32.943,8.8,31.2Zm103.064-2.668c-1.16,0-2.552,1.218-4.118,3.712l.754-4.118-4.06,1.218L101.77,42.4h3.364a79.812,79.812,0,0,1,5.1-9.686c-.058.87-.232,2.2-.464,4.118l3.886-2.784a14.879,14.879,0,0,1,.29-2.9A2.439,2.439,0,0,0,111.862,28.535ZM98.7,36.249a16.885,16.885,0,0,1-5.1,3.074.8.8,0,0,0,.87.522c1.218,0,3.306-1.566,6.322-4.756l.522,3.016c-3.306,3.074-5.916,4.582-7.83,4.582-2.61,0-3.886-1.334-3.886-4,0-2.088.986-4.35,2.958-6.844s4-3.712,6.032-3.712a2.91,2.91,0,0,1,2.958,3.132C101.538,32.943,100.61,34.625,98.7,36.249ZM98.348,31.2l-.174-.58c-.754.058-1.624.812-2.552,2.262a12.282,12.282,0,0,0-1.508,3.364C96.956,34.625,98.348,32.943,98.348,31.2Zm-10.9-2.494c-.754,2.03-1.624,4.06-2.61,6.206C83.268,38.221,82.05,39.9,81.18,39.9h-.058l-.232-.522a35.219,35.219,0,0,1,1.218-5.974l1.566-5.568L79.382,29l-.87,2.668a24.314,24.314,0,0,0-.986,6.96c0,2.668,1.044,4,3.074,4,2.958,0,6.554-4.7,10.846-14.152ZM66.217,35.263l.812,2.842c-2.9,3.016-5.046,4.524-6.38,4.524-1.8,0-2.668-.87-2.668-2.61a29.666,29.666,0,0,1,.812-4.7l-.754.812-.812-2.726,2.842-3.364A134.232,134.232,0,0,1,65.057,13.63C68.247,5.22,71.089.986,73.641.986c1.334,0,2.03,1.16,2.03,3.538,0,5.626-3.77,13.63-11.31,24.127-.522,1.74-.986,3.48-1.45,5.162a30.51,30.51,0,0,0-1.1,5.51h.116A25.442,25.442,0,0,0,66.217,35.263Zm.232-14.384c2.436-4,3.828-6.438,4.234-7.192a23.631,23.631,0,0,0,2.378-9.222C71.959,4.524,69.755,9.976,66.449,20.88Zm8.062,0a2.018,2.018,0,0,0-2.262,2.32c0,1.45.7,2.146,2.03,2.146a2.035,2.035,0,0,0,2.32-2.32A1.864,1.864,0,0,0,74.511,20.88Zm-2.9,18.038a75.084,75.084,0,0,1,3.364-11.078l-4.7.986-1.624,6.612c-.7,2.842-1.044,4.292-1.044,4.408,0,1.856.754,2.784,2.2,2.784,1.624,0,3.828-1.74,6.67-5.278l-1.276-2.03C73.7,36.945,72.481,38.163,71.611,38.917Z" transform="translate(-0.04 0)" fill="#fff"/></g></svg>